<svg id="SvgjsSvg1006" width="1231.388888888889" height="785.8888888888888" xmlns="http://www.w3.org/2000/svg" version="1.1" xmlns:xlink="http://www.w3.org/1999/xlink" xmlns:svgjs="http://svgjs.com/svgjs"><defs id="SvgjsDefs1007"><pattern patternUnits="userSpaceOnUse" id="pattern_mark_0" width="300" height="300"><text x="150" y="100" fill="rgba(229,229,229,0.8)" font-size="18" transform="rotate(-45, 150, 150)" style="dominant-baseline: middle; text-anchor: middle;"></text></pattern><pattern patternUnits="userSpaceOnUse" id="pattern_mark_1" width="300" height="300"><text x="150" y="200" fill="rgba(229,229,229,0.8)" font-size="18" transform="rotate(-45, 150, 150)" style="dominant-baseline: middle; text-anchor: middle;"></text></pattern><marker id="SvgjsMarker1049" markerWidth="13" markerHeight="9" refX="9.5" refY="4.5" viewBox="0 0 13 9" orient="auto" markerUnits="userSpaceOnUse" stroke-dasharray="0,0"><path id="SvgjsPath1050" d="M0,0 L13,4.5 L0,9 L0,0" fill="#323232" stroke="#323232" stroke-width="1"></path></marker><marker id="SvgjsMarker1057" markerWidth="13" markerHeight="9" refX="9.5" refY="4.5" viewBox="0 0 13 9" orient="auto" markerUnits="userSpaceOnUse" stroke-dasharray="0,0"><path id="SvgjsPath1058" d="M0,0 L13,4.5 L0,9 L0,0" fill="#323232" stroke="#323232" stroke-width="1"></path></marker><marker id="SvgjsMarker1079" markerWidth="13" markerHeight="9" refX="9.5" refY="4.5" viewBox="0 0 13 9" orient="auto" markerUnits="userSpaceOnUse" stroke-dasharray="0,0"><path id="SvgjsPath1080" d="M0,0 L13,4.5 L0,9 L0,0" fill="#323232" stroke="#323232" stroke-width="1"></path></marker><marker id="SvgjsMarker1093" markerWidth="13" markerHeight="9" refX="9.5" refY="4.5" viewBox="0 0 13 9" orient="auto" markerUnits="userSpaceOnUse" stroke-dasharray="0,0"><path id="SvgjsPath1094" d="M0,0 L13,4.5 L0,9 L0,0" fill="#323232" stroke="#323232" stroke-width="1"></path></marker><marker id="SvgjsMarker1101" markerWidth="13" markerHeight="9" refX="9.5" refY="4.5" viewBox="0 0 13 9" orient="auto" markerUnits="userSpaceOnUse" stroke-dasharray="0,0"><path id="SvgjsPath1102" d="M0,0 L13,4.5 L0,9 L0,0" fill="#323232" stroke="#323232" stroke-width="1"></path></marker></defs><rect id="svgbackgroundid" width="1231.388888888889" height="785.8888888888888" fill="transparent"></rect><rect id="SvgjsRect1009" width="1231.388888888889" height="785.8888888888888" fill="url(#pattern_mark_0)"></rect><rect id="SvgjsRect1010" width="1231.388888888889" height="785.8888888888888" fill="url(#pattern_mark_1)"></rect><g id="SvgjsG1011" transform="translate(120,55)"><path id="SvgjsPath1012" d="M 0 4Q 0 0 4 0L 112 0Q 116 0 116 4L 116 49Q 116 53 112 53L 4 53Q 0 53 0 49Z" stroke="rgba(33,41,48,1)" stroke-width="1.5" fill-opacity="1" fill="#ffffff"></path><g id="SvgjsG1013"><text id="SvgjsText1014" font-family="微软雅黑" text-anchor="middle" font-size="13px" width="96px" fill="#323232" font-weight="400" align="middle" lineHeight="125%" anchor="middle" family="微软雅黑" size="13px" weight="400" font-style="" opacity="1" y="7.375" transform="rotate(0)"><tspan id="SvgjsTspan1015" dy="16.25" x="58"><tspan id="SvgjsTspan1016" style="">register-center</tspan></tspan><tspan id="SvgjsTspan1017" dy="16.25" x="58"><tspan id="SvgjsTspan1018" style=""> </tspan></tspan></text></g></g><g id="SvgjsG1019" transform="translate(385.3333333333335,55)"><path id="SvgjsPath1020" d="M 0 4Q 0 0 4 0L 112 0Q 116 0 116 4L 116 49Q 116 53 112 53L 4 53Q 0 53 0 49Z" stroke="rgba(33,41,48,1)" stroke-width="1.5" fill-opacity="1" fill="#ffffff"></path><g id="SvgjsG1021"><text id="SvgjsText1022" font-family="微软雅黑" text-anchor="middle" font-size="13px" width="96px" fill="#323232" font-weight="400" align="middle" lineHeight="125%" anchor="middle" family="微软雅黑" size="13px" weight="400" font-style="" opacity="1" y="15.875" transform="rotate(0)"><tspan id="SvgjsTspan1023" dy="16.25" x="58"><tspan id="SvgjsTspan1024" style="">svc</tspan></tspan></text></g></g><g id="SvgjsG1025" transform="translate(393.3333333333335,516.3333333333333)"><path id="SvgjsPath1026" d="M 15 0L 88.33333333333333 0C 103.18181818181819 0 103.18181818181819 70 88.33333333333333 70L 15 70C -5 70 -5 0 15 0ZM 88.33333333333333 0C 73.75 0 73.75 70 88.33333333333333 70C 73.75 70 73.75 0 88.33333333333333 0" stroke="rgba(33,41,48,1)" stroke-width="1.5" fill-opacity="1" fill="#ffffff"></path><g id="SvgjsG1027"><text id="SvgjsText1028" font-family="微软雅黑" text-anchor="middle" font-size="13px" width="80px" fill="#323232" font-weight="400" align="middle" lineHeight="125%" anchor="middle" family="微软雅黑" size="13px" weight="400" font-style="" opacity="1" y="24.375" transform="rotate(0)"><tspan id="SvgjsTspan1029" dy="16.25" x="40"><tspan id="SvgjsTspan1030" style="">kafka</tspan></tspan></text></g></g><g id="SvgjsG1031" transform="translate(143,511.33333333333326)"><path id="SvgjsPath1032" d="M 0 11.666666666666666L 0 68C 0 84 70 84 70 68L 70 11.666666666666666C 70 -3.1818181818181817 0 -3.1818181818181817 0 11.666666666666666ZM 0 11.666666666666666C 0 26.25 70 26.25 70 11.666666666666666C 70 26.25 0 26.25 0 11.666666666666666" stroke="rgba(33,41,48,1)" stroke-width="1.5" fill-opacity="1" fill="#ffffff"></path><g id="SvgjsG1033"><text id="SvgjsText1034" font-family="微软雅黑" text-anchor="middle" font-size="13px" width="70px" fill="#323232" font-weight="400" align="middle" lineHeight="125%" anchor="middle" family="微软雅黑" size="13px" weight="400" font-style="" opacity="1" y="21.375" transform="rotate(0)"><tspan id="SvgjsTspan1035" dy="16.25" x="35"><tspan id="SvgjsTspan1036" style="">redis</tspan></tspan></text></g></g><g id="SvgjsG1037" transform="translate(436.2962849934894,656.4444444444443)"><path id="SvgjsPath1038" d="M 0 91.3888888888889L 0 0L 357.77777777777806 0L 357.77777777777806 91.3888888888889Q 268.33333333333354 65.27777777777779 178.88888888888903 91.3888888888889Q 89.44444444444451 117.50000000000001 0 91.3888888888889Z" stroke="rgba(33,41,48,1)" stroke-width="1.5" fill-opacity="1" fill="#ffffff"></path><g id="SvgjsG1039"><text id="SvgjsText1040" font-family="微软雅黑" text-anchor="middle" font-size="13px" width="358px" fill="#323232" font-weight="400" align="middle" lineHeight="125%" anchor="middle" family="微软雅黑" size="13px" weight="400" font-style="" opacity="1" y="19.875000000000007" transform="rotate(0)"><tspan id="SvgjsTspan1041" dy="16.25" x="179"><tspan id="SvgjsTspan1042" style="">1. register-center启动。查看redis存活服务</tspan></tspan><tspan id="SvgjsTspan1043" dy="16.25" x="179"><tspan id="SvgjsTspan1044" style="">2. svc启动，produce msg</tspan></tspan><tspan id="SvgjsTspan1045" dy="16.25" x="179"><tspan id="SvgjsTspan1046" style="">3. register-center consume msg，并将svc存入redis</tspan></tspan></text></g></g><g id="SvgjsG1047"><path id="SvgjsPath1048" d="M178 510.58333333333326L178 309.66666666666663L178 309.66666666666663L178 110.69999999999999" stroke="#323232" stroke-width="1.5" fill="none" marker-end="url(#SvgjsMarker1049)"></path><rect id="SvgjsRect1051" width="305" height="16" x="25.5" y="265.2971900826446" fill="#ffffff"></rect><text id="SvgjsText1052" font-family="微软雅黑" text-anchor="middle" font-size="13px" width="305px" fill="#323232" font-weight="400" align="top" lineHeight="16px" anchor="middle" family="微软雅黑" size="13px" weight="400" font-style="" opacity="1" y="262.6721900826446" transform="rotate(0)"><tspan id="SvgjsTspan1053" dy="16.25" x="178"><tspan id="SvgjsTspan1054" style="">1. 启动register-center，查看redis存活svc, 服务发现</tspan></tspan></text></g><g id="SvgjsG1055"><path id="SvgjsPath1056" d="M443.3333333333335 108.75L443.3333333333335 312.16666666666663L443.3333333333335 312.16666666666663L443.3333333333335 513.6333333333332" stroke="#323232" stroke-width="1.5" fill="none" marker-end="url(#SvgjsMarker1057)"></path><rect id="SvgjsRect1059" width="155" height="16" x="365.8333333333335" y="261.1609206349206" fill="#ffffff"></rect><text id="SvgjsText1060" font-family="微软雅黑" text-anchor="middle" font-size="13px" width="155px" fill="#323232" font-weight="400" align="top" lineHeight="16px" anchor="middle" family="微软雅黑" size="13px" weight="400" font-style="" opacity="1" y="258.5359206349206" transform="rotate(0)"><tspan id="SvgjsTspan1061" dy="16.25" x="443.3333333333335"><tspan id="SvgjsTspan1062" style="">2. 启动svc，produce msg</tspan></tspan></text></g><g id="SvgjsG1063" transform="translate(650.666666666667,55)"><path id="SvgjsPath1064" d="M 0 4Q 0 0 4 0L 112 0Q 116 0 116 4L 116 49Q 116 53 112 53L 4 53Q 0 53 0 49Z" stroke="rgba(33,41,48,1)" stroke-width="1.5" fill-opacity="1" fill="#ffffff"></path><g id="SvgjsG1065"><text id="SvgjsText1066" font-family="微软雅黑" text-anchor="middle" font-size="13px" width="96px" fill="#323232" font-weight="400" align="middle" lineHeight="125%" anchor="middle" family="微软雅黑" size="13px" weight="400" font-style="" opacity="1" y="7.375" transform="rotate(0)"><tspan id="SvgjsTspan1067" dy="16.25" x="58"><tspan id="SvgjsTspan1068" style="">register-center</tspan></tspan><tspan id="SvgjsTspan1069" dy="16.25" x="58"><tspan id="SvgjsTspan1070" style=""> </tspan></tspan></text></g></g><g id="SvgjsG1071" transform="translate(658.666666666667,516.3333333333333)"><path id="SvgjsPath1072" d="M 15 0L 88.33333333333333 0C 103.18181818181819 0 103.18181818181819 70 88.33333333333333 70L 15 70C -5 70 -5 0 15 0ZM 88.33333333333333 0C 73.75 0 73.75 70 88.33333333333333 70C 73.75 70 73.75 0 88.33333333333333 0" stroke="rgba(33,41,48,1)" stroke-width="1.5" fill-opacity="1" fill="#ffffff"></path><g id="SvgjsG1073"><text id="SvgjsText1074" font-family="微软雅黑" text-anchor="middle" font-size="13px" width="80px" fill="#323232" font-weight="400" align="middle" lineHeight="125%" anchor="middle" family="微软雅黑" size="13px" weight="400" font-style="" opacity="1" y="24.375" transform="rotate(0)"><tspan id="SvgjsTspan1075" dy="16.25" x="40"><tspan id="SvgjsTspan1076" style="">kafka</tspan></tspan></text></g></g><g id="SvgjsG1077"><path id="SvgjsPath1078" d="M708.666666666667 515.5833333333333L708.666666666667 312.16666666666663L708.666666666667 312.16666666666663L708.666666666667 110.69999999999999" stroke="#323232" stroke-width="1.5" fill="none" marker-end="url(#SvgjsMarker1079)"></path><rect id="SvgjsRect1081" width="101" height="16" x="658.166666666667" y="257.6023038548753" fill="#ffffff"></rect><text id="SvgjsText1082" font-family="微软雅黑" text-anchor="middle" font-size="13px" width="101px" fill="#323232" font-weight="400" align="top" lineHeight="16px" anchor="middle" family="微软雅黑" size="13px" weight="400" font-style="" opacity="1" y="254.9773038548753" transform="rotate(0)"><tspan id="SvgjsTspan1083" dy="16.25" x="708.666666666667"><tspan id="SvgjsTspan1084" style="">3. consume msg</tspan></tspan></text></g><g id="SvgjsG1085" transform="translate(924.0000000000005,511.33333333333326)"><path id="SvgjsPath1086" d="M 0 11.666666666666666L 0 68C 0 84 70 84 70 68L 70 11.666666666666666C 70 -3.1818181818181817 0 -3.1818181818181817 0 11.666666666666666ZM 0 11.666666666666666C 0 26.25 70 26.25 70 11.666666666666666C 70 26.25 0 26.25 0 11.666666666666666" stroke="rgba(33,41,48,1)" stroke-width="1.5" fill-opacity="1" fill="#ffffff"></path><g id="SvgjsG1087"><text id="SvgjsText1088" font-family="微软雅黑" text-anchor="middle" font-size="13px" width="70px" fill="#323232" font-weight="400" align="middle" lineHeight="125%" anchor="middle" family="微软雅黑" size="13px" weight="400" font-style="" opacity="1" y="21.375" transform="rotate(0)"><tspan id="SvgjsTspan1089" dy="16.25" x="35"><tspan id="SvgjsTspan1090" style="">redis</tspan></tspan></text></g></g><g id="SvgjsG1091"><path id="SvgjsPath1092" d="M767.416666666667 81.5L959.0000000000005 81.5L959.0000000000005 508.6333333333332" stroke="#323232" stroke-width="1.5" fill="none" marker-end="url(#SvgjsMarker1093)"></path><rect id="SvgjsRect1095" width="51" height="16" x="933.5000000000005" y="250.47268803762233" fill="#ffffff"></rect><text id="SvgjsText1096" font-family="微软雅黑" text-anchor="middle" font-size="13px" width="51px" fill="#323232" font-weight="400" align="top" lineHeight="16px" anchor="middle" family="微软雅黑" size="13px" weight="400" font-style="" opacity="1" y="247.84768803762233" transform="rotate(0)"><tspan id="SvgjsTspan1097" dy="16.25" x="959.0000000000005"><tspan id="SvgjsTspan1098" style="">4. set kv</tspan></tspan></text></g><g id="SvgjsG1099"><path id="SvgjsPath1100" d="M178 592.0833333333333L178 621.3333333333333L1164.888888888889 621.3333333333333L1164.888888888889 25L178 25L178 52.30000000000001" stroke="#323232" stroke-width="1.5" fill="none" marker-end="url(#SvgjsMarker1101)"></path><rect id="SvgjsRect1103" width="82" height="16" x="1123.888888888889" y="251.72627335839906" fill="#ffffff"></rect><text id="SvgjsText1104" font-family="微软雅黑" text-anchor="middle" font-size="13px" width="82px" fill="#323232" font-weight="400" align="top" lineHeight="16px" anchor="middle" family="微软雅黑" size="13px" weight="400" font-style="" opacity="1" y="249.10127335839906" transform="rotate(0)"><tspan id="SvgjsTspan1105" dy="16.25" x="1164.888888888889"><tspan id="SvgjsTspan1106" style="">5.服务发现svc</tspan></tspan></text></g></svg>