<svg id="SvgjsSvg1006" width="526" height="302" xmlns="http://www.w3.org/2000/svg" version="1.1" xmlns:xlink="http://www.w3.org/1999/xlink" xmlns:svgjs="http://svgjs.com/svgjs"><defs id="SvgjsDefs1007"><pattern patternUnits="userSpaceOnUse" id="pattern_mark_0" width="300" height="300"><text x="150" y="100" fill="rgba(229,229,229,0.8)" font-size="18" transform="rotate(-45, 150, 150)" style="dominant-baseline: middle; text-anchor: middle;"></text></pattern><pattern patternUnits="userSpaceOnUse" id="pattern_mark_1" width="300" height="300"><text x="150" y="200" fill="rgba(229,229,229,0.8)" font-size="18" transform="rotate(-45, 150, 150)" style="dominant-baseline: middle; text-anchor: middle;"></text></pattern><marker id="SvgjsMarker1025" markerWidth="13" markerHeight="9" refX="9.5" refY="4.5" viewBox="0 0 13 9" orient="auto" markerUnits="userSpaceOnUse" stroke-dasharray="0,0"><path id="SvgjsPath1026" d="M0,0 L13,4.5 L0,9 L0,0" fill="#323232" stroke="#323232" stroke-width="1"></path></marker><marker id="SvgjsMarker1047" markerWidth="13" markerHeight="9" refX="9.5" refY="4.5" viewBox="0 0 13 9" orient="auto" markerUnits="userSpaceOnUse" stroke-dasharray="0,0"><path id="SvgjsPath1048" d="M0,0 L13,4.5 L0,9 L0,0" fill="#323232" stroke="#323232" stroke-width="1"></path></marker></defs><rect id="svgbackgroundid" width="526" height="302" fill="transparent"></rect><rect id="SvgjsRect1009" width="526" height="302" fill="url(#pattern_mark_0)"></rect><rect id="SvgjsRect1010" width="526" height="302" fill="url(#pattern_mark_1)"></rect><g id="SvgjsG1011" transform="translate(86.5,223)"><path id="SvgjsPath1012" d="M 0 4Q 0 0 4 0L 92 0Q 96 0 96 4L 96 50Q 96 54 92 54L 4 54Q 0 54 0 50Z" stroke="rgba(33,41,48,1)" stroke-width="1.5" fill-opacity="1" fill="#ffffff"></path><g id="SvgjsG1013"><text id="SvgjsText1014" font-family="微软雅黑" text-anchor="middle" font-size="13px" width="76px" fill="#323232" font-weight="400" align="middle" lineHeight="125%" anchor="middle" family="微软雅黑" size="13px" weight="400" font-style="" opacity="1" y="16.375" transform="rotate(0)"><tspan id="SvgjsTspan1015" dy="16.25" x="48"><tspan id="SvgjsTspan1016" style="">conf-center</tspan></tspan></text></g></g><g id="SvgjsG1017" transform="translate(86.5,25)"><path id="SvgjsPath1018" d="M 0 4Q 0 0 4 0L 92 0Q 96 0 96 4L 96 50Q 96 54 92 54L 4 54Q 0 54 0 50Z" stroke="rgba(33,41,48,1)" stroke-width="1.5" fill-opacity="1" fill="#ffffff"></path><g id="SvgjsG1019"><text id="SvgjsText1020" font-family="微软雅黑" text-anchor="middle" font-size="13px" width="76px" fill="#323232" font-weight="400" align="middle" lineHeight="125%" anchor="middle" family="微软雅黑" size="13px" weight="400" font-style="" opacity="1" y="16.375" transform="rotate(0)"><tspan id="SvgjsTspan1021" dy="16.25" x="48"><tspan id="SvgjsTspan1022" style="">gate</tspan></tspan></text></g></g><g id="SvgjsG1023"><path id="SvgjsPath1024" d="M134.5 79.75L134.5 151L134.5 151L134.5 220.3" stroke="#323232" stroke-width="1.5" fill="none" marker-end="url(#SvgjsMarker1025)"></path><rect id="SvgjsRect1027" width="218" height="32" x="25.5" y="123.24417613636365" fill="#ffffff"></rect><text id="SvgjsText1028" font-family="微软雅黑" text-anchor="middle" font-size="13px" width="218px" fill="#323232" font-weight="400" align="top" lineHeight="16px" anchor="middle" family="微软雅黑" size="13px" weight="400" font-style="" opacity="1" y="120.61917613636365" transform="rotate(0)"><tspan id="SvgjsTspan1029" dy="16.25" x="134.5"><tspan id="SvgjsTspan1030" style="">1. get all svc conf from conf-center, </tspan></tspan><tspan id="SvgjsTspan1031" dy="16.25" x="134.5"><tspan id="SvgjsTspan1032" style="">get svc ip and port</tspan></tspan></text></g><g id="SvgjsG1033" transform="translate(355.5,25)"><path id="SvgjsPath1034" d="M 0 4Q 0 0 4 0L 92 0Q 96 0 96 4L 96 50Q 96 54 92 54L 4 54Q 0 54 0 50Z" stroke="rgba(33,41,48,1)" stroke-width="1.5" fill-opacity="1" fill="#ffffff"></path><g id="SvgjsG1035"><text id="SvgjsText1036" font-family="微软雅黑" text-anchor="middle" font-size="13px" width="76px" fill="#323232" font-weight="400" align="middle" lineHeight="125%" anchor="middle" family="微软雅黑" size="13px" weight="400" font-style="" opacity="1" y="16.375" transform="rotate(0)"><tspan id="SvgjsTspan1037" dy="16.25" x="48"><tspan id="SvgjsTspan1038" style="">client</tspan></tspan></text></g></g><g id="SvgjsG1039" transform="translate(355.5,223)"><path id="SvgjsPath1040" d="M 0 4Q 0 0 4 0L 92 0Q 96 0 96 4L 96 50Q 96 54 92 54L 4 54Q 0 54 0 50Z" stroke="rgba(33,41,48,1)" stroke-width="1.5" fill-opacity="1" fill="#ffffff"></path><g id="SvgjsG1041"><text id="SvgjsText1042" font-family="微软雅黑" text-anchor="middle" font-size="13px" width="76px" fill="#323232" font-weight="400" align="middle" lineHeight="125%" anchor="middle" family="微软雅黑" size="13px" weight="400" font-style="" opacity="1" y="16.375" transform="rotate(0)"><tspan id="SvgjsTspan1043" dy="16.25" x="48"><tspan id="SvgjsTspan1044" style="">gate</tspan></tspan></text></g></g><g id="SvgjsG1045"><path id="SvgjsPath1046" d="M403.5 79.75L403.5 220.3" stroke="#323232" stroke-width="1.5" fill="none" marker-end="url(#SvgjsMarker1047)"></path><rect id="SvgjsRect1049" width="194" height="32" x="306.5" y="109.70931558935362" fill="#ffffff"></rect><text id="SvgjsText1050" font-family="微软雅黑" text-anchor="middle" font-size="13px" width="194px" fill="#323232" font-weight="400" align="top" lineHeight="16px" anchor="middle" family="微软雅黑" size="13px" weight="400" font-style="" opacity="1" y="107.08431558935362" transform="rotate(0)"><tspan id="SvgjsTspan1051" dy="16.25" x="403.5"><tspan id="SvgjsTspan1052" style="">2. client call api, </tspan></tspan><tspan id="SvgjsTspan1053" dy="16.25" x="403.5"><tspan id="SvgjsTspan1054" style="">gate transfer the request to svc</tspan></tspan></text></g></svg>