<svg id="SvgjsSvg1006" width="1167.75" height="690.25" xmlns="http://www.w3.org/2000/svg" version="1.1" xmlns:xlink="http://www.w3.org/1999/xlink" xmlns:svgjs="http://svgjs.com/svgjs"><defs id="SvgjsDefs1007"><pattern patternUnits="userSpaceOnUse" id="pattern_mark_0" width="300" height="300"><text x="150" y="100" fill="rgba(229,229,229,0.8)" font-size="18" transform="rotate(-45, 150, 150)" style="dominant-baseline: middle; text-anchor: middle;"></text></pattern><pattern patternUnits="userSpaceOnUse" id="pattern_mark_1" width="300" height="300"><text x="150" y="200" fill="rgba(229,229,229,0.8)" font-size="18" transform="rotate(-45, 150, 150)" style="dominant-baseline: middle; text-anchor: middle;"></text></pattern><marker id="SvgjsMarker1031" markerWidth="13" markerHeight="9" refX="9.5" refY="4.5" viewBox="0 0 13 9" orient="auto" markerUnits="userSpaceOnUse" stroke-dasharray="0,0"><path id="SvgjsPath1032" d="M0,0 L13,4.5 L0,9 L0,0" fill="#323232" stroke="#323232" stroke-width="1"></path></marker><marker id="SvgjsMarker1045" markerWidth="13" markerHeight="9" refX="9.5" refY="4.5" viewBox="0 0 13 9" orient="auto" markerUnits="userSpaceOnUse" stroke-dasharray="0,0"><path id="SvgjsPath1046" d="M0,0 L13,4.5 L0,9 L0,0" fill="#323232" stroke="#323232" stroke-width="1"></path></marker><marker id="SvgjsMarker1067" markerWidth="13" markerHeight="9" refX="9.5" refY="4.5" viewBox="0 0 13 9" orient="auto" markerUnits="userSpaceOnUse" stroke-dasharray="0,0"><path id="SvgjsPath1068" d="M0,0 L13,4.5 L0,9 L0,0" fill="#323232" stroke="#323232" stroke-width="1"></path></marker><marker id="SvgjsMarker1091" markerWidth="13" markerHeight="9" refX="9.5" refY="4.5" viewBox="0 0 13 9" orient="auto" markerUnits="userSpaceOnUse" stroke-dasharray="0,0"><path id="SvgjsPath1092" d="M0,0 L13,4.5 L0,9 L0,0" fill="#323232" stroke="#323232" stroke-width="1"></path></marker><marker id="SvgjsMarker1099" markerWidth="13" markerHeight="9" refX="9.5" refY="4.5" viewBox="0 0 13 9" orient="auto" markerUnits="userSpaceOnUse" stroke-dasharray="0,0"><path id="SvgjsPath1100" d="M0,0 L13,4.5 L0,9 L0,0" fill="#323232" stroke="#323232" stroke-width="1"></path></marker><marker id="SvgjsMarker1107" markerWidth="13" markerHeight="9" refX="9.5" refY="4.5" viewBox="0 0 13 9" orient="auto" markerUnits="userSpaceOnUse" stroke-dasharray="0,0"><path id="SvgjsPath1108" d="M0,0 L13,4.5 L0,9 L0,0" fill="#323232" stroke="#323232" stroke-width="1"></path></marker></defs><rect id="svgbackgroundid" width="1167.75" height="690.25" fill="transparent"></rect><rect id="SvgjsRect1009" width="1167.75" height="690.25" fill="url(#pattern_mark_0)"></rect><rect id="SvgjsRect1010" width="1167.75" height="690.25" fill="url(#pattern_mark_1)"></rect><g id="SvgjsG1011" transform="translate(239,25)"><path id="SvgjsPath1012" d="M 0 4Q 0 0 4 0L 92 0Q 96 0 96 4L 96 50Q 96 54 92 54L 4 54Q 0 54 0 50Z" stroke="rgba(33,41,48,1)" stroke-width="1.5" fill-opacity="1" fill="#ffffff"></path><g id="SvgjsG1013"><text id="SvgjsText1014" font-family="微软雅黑" text-anchor="middle" font-size="13px" width="76px" fill="#323232" font-weight="400" align="middle" lineHeight="125%" anchor="middle" family="微软雅黑" size="13px" weight="400" font-style="" opacity="1" y="16.375" transform="rotate(0)"><tspan id="SvgjsTspan1015" dy="16.25" x="48"><tspan id="SvgjsTspan1016" style="">conf-center</tspan></tspan></text></g></g><g id="SvgjsG1017" transform="translate(462,25)"><path id="SvgjsPath1018" d="M 0 4Q 0 0 4 0L 92 0Q 96 0 96 4L 96 50Q 96 54 92 54L 4 54Q 0 54 0 50Z" stroke="rgba(33,41,48,1)" stroke-width="1.5" fill-opacity="1" fill="#ffffff"></path><g id="SvgjsG1019"><text id="SvgjsText1020" font-family="微软雅黑" text-anchor="middle" font-size="13px" width="76px" fill="#323232" font-weight="400" align="middle" lineHeight="125%" anchor="middle" family="微软雅黑" size="13px" weight="400" font-style="" opacity="1" y="16.375" transform="rotate(0)"><tspan id="SvgjsTspan1021" dy="16.25" x="48"><tspan id="SvgjsTspan1022" style="">svc</tspan></tspan></text></g></g><g id="SvgjsG1023" transform="translate(252,352)"><path id="SvgjsPath1024" d="M 0 11.666666666666666L 0 68C 0 84 70 84 70 68L 70 11.666666666666666C 70 -3.1818181818181817 0 -3.1818181818181817 0 11.666666666666666ZM 0 11.666666666666666C 0 26.25 70 26.25 70 11.666666666666666C 70 26.25 0 26.25 0 11.666666666666666" stroke="rgba(33,41,48,1)" stroke-width="1.5" fill-opacity="1" fill="#ffffff"></path><g id="SvgjsG1025"><text id="SvgjsText1026" font-family="微软雅黑" text-anchor="middle" font-size="13px" width="70px" fill="#323232" font-weight="400" align="middle" lineHeight="125%" anchor="middle" family="微软雅黑" size="13px" weight="400" font-style="" opacity="1" y="21.375" transform="rotate(0)"><tspan id="SvgjsTspan1027" dy="16.25" x="35"><tspan id="SvgjsTspan1028" style="">MySQL</tspan></tspan></text></g></g><g id="SvgjsG1029"><path id="SvgjsPath1030" d="M287 79.75L287 215.5L287 215.5L287 349.3" stroke="#323232" stroke-width="1.5" fill="none" marker-end="url(#SvgjsMarker1031)"></path><rect id="SvgjsRect1033" width="117" height="16" x="228.5" y="134.9412087912088" fill="#ffffff"></rect><text id="SvgjsText1034" font-family="微软雅黑" text-anchor="middle" font-size="13px" width="117px" fill="#323232" font-weight="400" align="top" lineHeight="16px" anchor="middle" family="微软雅黑" size="13px" weight="400" font-style="" opacity="1" y="132.3162087912088" transform="rotate(0)"><tspan id="SvgjsTspan1035" dy="16.25" x="287"><tspan id="SvgjsTspan1036" style="">1. start conf center</tspan></tspan></text></g><g id="SvgjsG1037" transform="translate(25,153)"><path id="SvgjsPath1038" d="M 0 0L 100 0L 100 70L 0 70L 0 0ZM 16.666666666666668 0L 16.666666666666668 70M 0 14L 100 14" stroke="rgba(33,41,48,1)" stroke-width="1.5" fill-opacity="1" fill="#ffffff"></path><g id="SvgjsG1039"><text id="SvgjsText1040" font-family="微软雅黑" text-anchor="middle" font-size="13px" width="84px" fill="#323232" font-weight="400" align="middle" lineHeight="125%" anchor="middle" family="微软雅黑" size="13px" weight="400" font-style="" opacity="1" y="31.375" transform="rotate(0)"><tspan id="SvgjsTspan1041" dy="16.25" x="58.66666666666667"><tspan id="SvgjsTspan1042" style="">conf.yml</tspan></tspan></text></g></g><g id="SvgjsG1043"><path id="SvgjsPath1044" d="M125.75 188L287 188L287 349.3" stroke="#323232" stroke-width="1.5" fill="none" marker-end="url(#SvgjsMarker1045)"></path><rect id="SvgjsRect1047" width="100" height="16" x="149.9562883435583" y="180" fill="#ffffff"></rect><text id="SvgjsText1048" font-family="微软雅黑" text-anchor="middle" font-size="13px" width="100px" fill="#323232" font-weight="400" align="top" lineHeight="16px" anchor="middle" family="微软雅黑" size="13px" weight="400" font-style="" opacity="1" y="177.375" transform="rotate(0)"><tspan id="SvgjsTspan1049" dy="16.25" x="199.9562883435583"><tspan id="SvgjsTspan1050" style="">2. read conf yml</tspan></tspan></text><rect id="SvgjsRect1051" width="109" height="16" x="232.5" y="223.55935582822087" fill="#ffffff"></rect><text id="SvgjsText1052" font-family="微软雅黑" text-anchor="middle" font-size="13px" width="109px" fill="#323232" font-weight="400" align="top" lineHeight="16px" anchor="middle" family="微软雅黑" size="13px" weight="400" font-style="" opacity="1" y="220.93435582822087" transform="rotate(0)"><tspan id="SvgjsTspan1053" dy="16.25" x="287"><tspan id="SvgjsTspan1054" style="">3. connect the db</tspan></tspan></text><rect id="SvgjsRect1055" width="149" height="16" x="212.5" y="283.25418719660286" fill="#ffffff"></rect><text id="SvgjsText1056" font-family="微软雅黑" text-anchor="middle" font-size="13px" width="149px" fill="#323232" font-weight="400" align="top" lineHeight="16px" anchor="middle" family="微软雅黑" size="13px" weight="400" font-style="" opacity="1" y="280.62918719660286" transform="rotate(0)"><tspan id="SvgjsTspan1057" dy="16.25" x="287"><tspan id="SvgjsTspan1058" style="">4. init the conf structure</tspan></tspan></text></g><g id="SvgjsG1059" transform="translate(462,365)"><path id="SvgjsPath1060" d="M 0 4Q 0 0 4 0L 92 0Q 96 0 96 4L 96 50Q 96 54 92 54L 4 54Q 0 54 0 50Z" stroke="rgba(33,41,48,1)" stroke-width="1.5" fill-opacity="1" fill="#ffffff"></path><g id="SvgjsG1061"><text id="SvgjsText1062" font-family="微软雅黑" text-anchor="middle" font-size="13px" width="76px" fill="#323232" font-weight="400" align="middle" lineHeight="125%" anchor="middle" family="微软雅黑" size="13px" weight="400" font-style="" opacity="1" y="16.375" transform="rotate(0)"><tspan id="SvgjsTspan1063" dy="16.25" x="48"><tspan id="SvgjsTspan1064" style="">conf-center</tspan></tspan></text></g></g><g id="SvgjsG1065"><path id="SvgjsPath1066" d="M510 79.75L510 222L510 222L510 362.3" stroke="#323232" stroke-width="1.5" fill="none" marker-end="url(#SvgjsMarker1067)"></path><rect id="SvgjsRect1069" width="66" height="16" x="477" y="142.88146853146856" fill="#ffffff"></rect><text id="SvgjsText1070" font-family="微软雅黑" text-anchor="middle" font-size="13px" width="66px" fill="#323232" font-weight="400" align="top" lineHeight="16px" anchor="middle" family="微软雅黑" size="13px" weight="400" font-style="" opacity="1" y="140.25646853146856" transform="rotate(0)"><tspan id="SvgjsTspan1071" dy="16.25" x="510"><tspan id="SvgjsTspan1072" style="">4. start svc</tspan></tspan></text><rect id="SvgjsRect1073" width="170" height="16" x="425" y="269.3374125874126" fill="#ffffff"></rect><text id="SvgjsText1074" font-family="微软雅黑" text-anchor="middle" font-size="13px" width="170px" fill="#323232" font-weight="400" align="top" lineHeight="16px" anchor="middle" family="微软雅黑" size="13px" weight="400" font-style="" opacity="1" y="266.7124125874126" transform="rotate(0)"><tspan id="SvgjsTspan1075" dy="16.25" x="510"><tspan id="SvgjsTspan1076" style="">6. get conf from conf struct</tspan></tspan></text></g><g id="SvgjsG1077" transform="translate(698,357)"><path id="SvgjsPath1078" d="M 15 0L 88.33333333333333 0C 103.18181818181819 0 103.18181818181819 70 88.33333333333333 70L 15 70C -5 70 -5 0 15 0ZM 88.33333333333333 0C 73.75 0 73.75 70 88.33333333333333 70C 73.75 70 73.75 0 88.33333333333333 0" stroke="rgba(33,41,48,1)" stroke-width="1.5" fill-opacity="1" fill="#ffffff"></path><g id="SvgjsG1079"><text id="SvgjsText1080" font-family="微软雅黑" text-anchor="middle" font-size="13px" width="80px" fill="#323232" font-weight="400" align="middle" lineHeight="125%" anchor="middle" family="微软雅黑" size="13px" weight="400" font-style="" opacity="1" y="24.375" transform="rotate(0)"><tspan id="SvgjsTspan1081" dy="16.25" x="40"><tspan id="SvgjsTspan1082" style="">kafka</tspan></tspan></text></g></g><g id="SvgjsG1083" transform="translate(970.25,25)"><path id="SvgjsPath1084" d="M 0 4Q 0 0 4 0L 92 0Q 96 0 96 4L 96 50Q 96 54 92 54L 4 54Q 0 54 0 50Z" stroke="rgba(33,41,48,1)" stroke-width="1.5" fill-opacity="1" fill="#ffffff"></path><g id="SvgjsG1085"><text id="SvgjsText1086" font-family="微软雅黑" text-anchor="middle" font-size="13px" width="76px" fill="#323232" font-weight="400" align="middle" lineHeight="125%" anchor="middle" family="微软雅黑" size="13px" weight="400" font-style="" opacity="1" y="16.375" transform="rotate(0)"><tspan id="SvgjsTspan1087" dy="16.25" x="48"><tspan id="SvgjsTspan1088" style="">conf-center</tspan></tspan></text></g></g><g id="SvgjsG1089"><path id="SvgjsPath1090" d="M1018.25 79.75L1018.25 457L748 457L748 429.7" stroke="#323232" stroke-width="1.5" fill="none" marker-end="url(#SvgjsMarker1091)"></path><rect id="SvgjsRect1093" width="247" height="16" x="894.7499999999999" y="258.7937154441577" fill="#ffffff"></rect><text id="SvgjsText1094" font-family="微软雅黑" text-anchor="middle" font-size="13px" width="247px" fill="#323232" font-weight="400" align="top" lineHeight="16px" anchor="middle" family="微软雅黑" size="13px" weight="400" font-style="" opacity="1" y="256.1687154441577" transform="rotate(0)"><tspan id="SvgjsTspan1095" dy="16.25" x="1018.2499999999999"><tspan id="SvgjsTspan1096" style="">7. when update conf, start produce msg </tspan></tspan></text></g><g id="SvgjsG1097"><path id="SvgjsPath1098" d="M510 79.75L510 218L748 218L748 354.3" stroke="#323232" stroke-width="1.5" fill="none" marker-end="url(#SvgjsMarker1099)"></path><rect id="SvgjsRect1101" width="108" height="16" x="599.5200328782547" y="210" fill="#ffffff"></rect><text id="SvgjsText1102" font-family="微软雅黑" text-anchor="middle" font-size="13px" width="108px" fill="#323232" font-weight="400" align="top" lineHeight="16px" anchor="middle" family="微软雅黑" size="13px" weight="400" font-style="" opacity="1" y="207.375" transform="rotate(0)"><tspan id="SvgjsTspan1103" dy="16.25" x="653.5200328782547"><tspan id="SvgjsTspan1104" style="">5. start consumer</tspan></tspan></text></g><g id="SvgjsG1105"><path id="SvgjsPath1106" d="M798.75 392L828 392L828 52L560.7 52" stroke="#323232" stroke-width="1.5" fill="none" marker-end="url(#SvgjsMarker1107)"></path><rect id="SvgjsRect1109" width="325" height="16" x="665.5" y="110.64009765625002" fill="#ffffff"></rect><text id="SvgjsText1110" font-family="微软雅黑" text-anchor="middle" font-size="13px" width="325px" fill="#323232" font-weight="400" align="top" lineHeight="16px" anchor="middle" family="微软雅黑" size="13px" weight="400" font-style="" opacity="1" y="108.01509765625002" transform="rotate(0)"><tspan id="SvgjsTspan1111" dy="16.25" x="828"><tspan id="SvgjsTspan1112" style="">8. consume msg, get updated conf from conf-center</tspan></tspan></text></g><g id="SvgjsG1113" transform="translate(418.41664123535156,501.5)"><path id="SvgjsPath1114" d="M 0 143.28125L 0 0L 421.25 0L 421.25 143.28125Q 315.9375 102.34375 210.625 143.28125Q 105.3125 184.21875 0 143.28125Z" stroke="rgba(33,41,48,1)" stroke-width="1.5" fill-opacity="1" fill="#ffffff"></path><g id="SvgjsG1115"><text id="SvgjsText1116" font-family="微软雅黑" text-anchor="middle" font-size="13px" width="422px" fill="#323232" font-weight="400" align="middle" lineHeight="125%" anchor="middle" family="微软雅黑" size="13px" weight="400" font-style="" opacity="1" y="46.5625" transform="rotate(0)"><tspan id="SvgjsTspan1117" dy="16.25" x="211"><tspan id="SvgjsTspan1118" style="">1. Use kafka to get the newest conf when conf-center was updated</tspan></tspan><tspan id="SvgjsTspan1119" dy="16.25" x="211"><tspan id="SvgjsTspan1120" style="">2. At diagram, only conf-center has conf.yml, normal svc don't have </tspan></tspan><tspan id="SvgjsTspan1121" dy="16.25" x="211"><tspan id="SvgjsTspan1122" style="">conf.yml</tspan></tspan></text></g></g></svg>